# xmcd CD database file
# Copyright (C) 1997 Ti Kan
# 
# Track frame offsets:
#     150
#     12555
#     27160
#     35477
#     51317
#     63757
#     78580
#     92547
#     105607
#     121297
#     136695
#     149595
#     163092
#     176040
#     189577
#     205917
#     222595
#     238230
#     258445
#     269720
# 
# Disc length: 3757 seconds
# 
# Revision: 1
# Processed by: cddbd v1.4b41PL1 Copyright (c) Steve Scherf et al.
# Submitted via: DiscPlay 4.0.3
# 
DISCID=2e0eab14
DTITLE=Shirley Bassey - The Shirley Bassey Collection [CD2 of 2)
DYEAR=1900
DGENRE=
TTITLE0=Diamonds Are Forever
TTITLE1=The Fool On the Hill
TTITLE2=Big Spender
TTITLE3=Make The World A Little Younger
TTITLE4=I Who Have Nothing
TTITLE5=What Kind Of Fool Am I
TTITLE6=Let's Fall In Love
TTITLE7=Somewhere
TTITLE8=Cry Me A River
TTITLE9=Where Or When
TTITLE10=Goldfinger
TTITLE11=The Lady Is A Tramp
TTITLE12=If I Were A Bell
TTITLE13=It's Magic
TTITLE14=Too Late Now
TTITLE15=Never Never Never
TTITLE16=When You Smile
TTITLE17=And I Love You So
TTITLE18=Does Anybody Miss Me
TTITLE19=For All We Know
EXTD=
EXTT0=
EXTT1=
EXTT2=
EXTT3=
EXTT4=
EXTT5=
EXTT6=
EXTT7=
EXTT8=
EXTT9=
EXTT10=
EXTT11=
EXTT12=
EXTT13=
EXTT14=
EXTT15=
EXTT16=
EXTT17=
EXTT18=
EXTT19=
PLAYORDER=
